PathFileType	4	(X/Y/Z)	TVC_32_BWA_07_walk_RCNL2025.trc
DataRate	CameraRate	NumFrames	NumMarkers	Units	OrigDataRate	OrigDataStartFrame	OrigNumFrames
100	100	12	27	mm	100	137	272
Frame#	Time	R_Shoulder			L_Shoulder			C7			J_Notch			R_Elbow			L_Elbow			R_Wrist			L_Wrist			R_Asis			L_Asis			R_Psis			L_Psis			Sacral			Thoracic			Sternum			R_Thigh_Lateral			R_Knee_Lateral			R_Shank_Lateral			R_Ankle_Lateral			R_Heel			R_Toe			L_Thigh_Lateral			L_Knee_Lateral			L_Shank_Lateral			L_Ankle_Lateral			L_Heel			L_Toe		
		X1	Y1	Z1	X2	Y2	Z2	X3	Y3	Z3	X4	Y4	Z4	X5	Y5	Z5	X6	Y6	Z6	X7	Y7	Z7	X8	Y8	Z8	X9	Y9	Z9	X10	Y10	Z10	X11	Y11	Z11	X12	Y12	Z12	X13	Y13	Z13	X14	Y14	Z14	X15	Y15	Z15	X16	Y16	Z16	X17	Y17	Z17	X18	Y18	Z18	X19	Y19	Z19	X20	Y20	Z20	X21	Y21	Z21	X22	Y22	Z22	X23	Y23	Z23	X24	Y24	Z24	X25	Y25	Z25	X26	Y26	Z26	X27	Y27	Z27
137	1.36000000	188.340836	1473.024170	-316.750366	150.040039	1438.423706	-688.560364	122.063499	1513.276489	-500.540924	280.490906	1414.633545	-500.788147	239.148300	1146.393677	-160.434189	96.362343	1106.485229	-775.688965	373.332779	906.976624	-191.923950	177.109322	846.611328	-737.045166	220.317184	1005.507263	-332.061310	217.012527	1015.465393	-615.058533	29.886427	1020.254150	-416.779907	30.943701	1020.935242	-518.755737	30.415064	1020.594696	-467.767822	48.762661	1248.804443	-474.208435	306.701202	1270.206177	-496.075714	174.854828	626.829895	-227.591125	224.420013	493.014862	-264.991913	42.073284	385.353912	-235.568756	-108.158813	241.902451	-325.906708	-147.192535	273.176361	-397.764954	-81.025772	89.674545	-327.911865	170.475952	665.114075	-672.164124	201.891113	503.003571	-605.035095	191.497269	340.871429	-665.937317	247.888199	70.867554	-596.804382	180.974854	55.341599	-549.220764	390.733398	39.322514	-568.866455
138	1.37000000	197.291962	1473.079956	-317.829132	160.110626	1438.970947	-690.092529	131.400436	1513.928101	-502.010864	289.551361	1414.781006	-501.853210	242.401810	1144.695068	-163.031494	113.638351	1106.421631	-779.826782	370.932556	902.027924	-193.180092	199.507034	847.867035	-742.928925	227.698044	1005.887451	-332.961212	224.326050	1015.442566	-616.164551	37.339066	1021.018433	-417.795532	38.228016	1021.875427	-519.711426	37.783541	1021.446930	-468.753479	56.996880	1249.870972	-475.671722	315.177521	1270.255371	-497.352844	189.974854	628.181885	-228.857864	244.068832	495.802979	-265.626648	61.955750	388.561829	-237.302490	-87.627159	245.001282	-328.032196	-127.624504	275.286865	-399.846588	-57.042274	94.093880	-328.069275	174.695694	665.482483	-672.715820	204.527039	503.074158	-605.411194	192.723068	341.022217	-666.057922	247.924194	70.876434	-596.702271	180.961761	55.426029	-549.114807	390.712921	39.229328	-568.781372
139	1.38000000	206.145111	1473.103027	-318.792603	170.080795	1439.471436	-691.500305	140.665695	1514.529541	-503.377136	298.530823	1414.866455	-502.811859	245.471375	1143.046875	-165.596802	130.947632	1106.512451	-783.790771	368.291016	897.269287	-194.505096	221.972458	849.399414	-748.755920	235.048965	1006.299500	-333.774933	231.529190	1015.448975	-617.209961	44.746319	1021.767578	-418.666473	45.454556	1022.769104	-520.529297	45.100437	1022.268341	-469.597885	65.158630	1250.889282	-477.021820	323.568115	1270.242432	-498.514374	205.101807	629.716797	-230.199875	263.392609	498.821106	-266.553162	81.925514	391.286560	-239.172836	-66.456589	246.789017	-330.133331	-107.777878	276.057465	-401.756165	-31.541359	97.453232	-328.987061	178.987213	665.902222	-673.192383	207.300949	503.186218	-605.749939	194.091461	341.230560	-666.158875	247.961258	70.898232	-596.609070	180.937729	55.519783	-549.004272	390.686310	39.164249	-568.706421
140	1.39000000	214.900009	1473.115479	-319.650970	179.957840	1439.935669	-692.787048	149.860352	1515.084717	-504.646667	307.434265	1414.900024	-503.665588	248.350708	1141.482544	-168.113861	148.249664	1106.776001	-787.575195	365.433517	892.747253	-195.902084	244.476646	851.249054	-754.494690	242.397629	1006.757751	-334.528992	238.629257	1015.512207	-618.211853	52.128719	1022.509033	-419.388641	52.642006	1023.620728	-521.207581	52.385363	1023.064880	-470.298111	73.261360	1251.859253	-478.257904	331.883850	1270.178833	-499.560120	220.333191	631.397827	-231.562042	282.359009	502.026337	-267.743378	102.058350	393.311249	-241.079712	-44.668568	247.223297	-332.189850	-87.587570	275.493652	-403.486023	-4.820386	99.661011	-330.687744	183.383392	666.368225	-673.606628	210.245026	503.341583	-606.055176	195.666153	341.501160	-666.251831	248.004883	70.929375	-596.521790	180.905029	55.619759	-548.887024	390.661011	39.124775	-568.640503
141	1.40000000	223.556885	1473.135010	-320.414124	189.750290	1440.372070	-693.956970	158.986649	1515.595459	-505.826355	316.267609	1414.890869	-504.416107	251.037323	1140.031494	-170.565475	165.500137	1107.224487	-791.178040	362.387695	888.502380	-197.372902	266.989868	853.451569	-760.113800	249.768143	1007.265381	-335.246002	245.640106	1015.648132	-619.182068	59.504749	1023.245544	-419.964020	59.808823	1024.432007	-521.749695	59.656786	1023.838776	-470.856857	81.318840	1252.779419	-479.381561	340.136414	1270.074585	-500.490723	235.684296	633.201111	-232.921188	300.939575	505.369324	-269.170776	122.423836	394.455261	-242.944351	-22.281382	246.305771	-334.192963	-66.991882	273.602509	-405.045807	22.900396	100.716866	-333.120483	187.907196	666.868286	-673.969849	213.374420	503.535889	-606.328674	197.478424	341.831024	-666.343994	248.059479	70.965881	-596.436890	180.865921	55.722416	-548.760925	390.643341	39.105915	-568.582092
142	1.41000000	232.116425	1473.175171	-321.091125	199.467453	1440.786865	-695.014709	168.047852	1516.062866	-506.922607	325.037781	1414.846313	-505.065094	253.532990	1138.718262	-172.933975	182.652725	1107.863647	-794.600464	359.183105	884.568634	-198.917923	289.480988	856.035706	-765.582764	257.180603	1007.814941	-335.943085	252.581909	1015.860291	-620.126465	66.890739	1023.975586	-420.400024	66.972931	1025.202393	-522.163452	66.931835	1024.588989	-471.281738	89.344986	1253.646362	-480.396606	348.338287	1269.937866	-501.307404	251.089035	635.108215	-234.276031	319.108490	508.796448	-270.811005	143.059082	394.618469	-244.725662	0.693088	244.074493	-336.143402	-45.930275	270.392822	-406.461090	51.478436	100.697052	-336.174988	192.568161	667.385559	-674.289978	216.687653	503.759949	-606.570435	199.529022	342.211273	-666.437988	248.127884	71.004051	-596.350769	180.822769	55.824535	-548.624023	390.637268	39.101093	-568.528809
143	1.42000000	240.579636	1473.244873	-321.689972	209.118881	1441.183716	-695.965149	177.048187	1516.485596	-507.941315	333.752411	1414.771484	-505.614105	255.843765	1137.562134	-175.201645	199.661209	1108.692017	-797.846313	355.850952	880.972839	-200.535934	311.917130	859.021698	-770.872711	264.650818	1008.390076	-336.630768	259.480194	1016.141113	-621.044800	74.300934	1024.693115	-420.708923	74.151413	1025.928833	-522.460632	74.226173	1025.310974	-471.584778	97.353600	1254.455688	-481.308472	356.502411	1269.774780	-502.011902	266.421082	637.102417	-235.633865	336.841003	512.251648	-272.641693	163.958649	393.795135	-246.419876	24.250784	240.595871	-338.048737	-24.340900	265.877686	-407.769714	80.832588	99.729492	-339.700684	197.362579	667.901672	-674.571533	220.169220	504.001312	-606.779175	201.794876	342.629150	-666.533020	248.211441	71.040955	-596.259766	180.778412	55.924099	-548.475403	390.643982	39.102955	-568.477234
144	1.43000000	248.947968	1473.348022	-322.217285	218.714035	1441.563477	-696.813293	185.992798	1516.861084	-508.887390	342.419800	1414.669800	-506.064636	257.979828	1136.577026	-177.351364	216.481400	1109.701294	-800.921387	352.423492	877.734680	-202.224052	334.263641	862.420532	-775.957336	272.190308	1008.967590	-337.312469	266.364258	1016.473572	-621.931091	81.747658	1025.388550	-420.906433	81.360229	1026.607056	-522.655884	81.553944	1025.997803	-471.781158	105.358246	1255.201660	-482.123749	364.642029	1269.589111	-502.606415	281.530792	639.162231	-237.003998	354.112427	515.677612	-274.642487	185.081604	392.056610	-248.047913	48.393909	235.956879	-339.919739	-2.160991	260.078796	-409.014923	110.917900	97.965607	-343.529083	202.277267	668.399048	-674.815918	223.793640	504.246033	-606.953369	204.238098	343.069794	-666.625671	248.310471	71.074654	-596.160339	180.736404	56.020870	-548.315979	390.661743	39.104145	-568.422852
145	1.44000000	257.223358	1473.484619	-322.678345	228.261887	1441.924316	-697.563782	194.887680	1517.185547	-509.764771	351.048706	1414.542603	-506.417877	259.954926	1135.771362	-179.367249	233.073105	1110.876953	-803.832397	348.933655	874.866577	-203.977768	356.484375	866.233276	-780.813507	279.806732	1009.520630	-337.984741	273.265411	1016.833679	-622.774780	89.241646	1026.049438	-421.010376	88.613968	1027.231567	-522.765320	88.927807	1026.640503	-471.887848	113.372078	1255.877930	-482.849487	372.770508	1269.382812	-503.093536	296.282257	641.247559	-238.399933	370.897064	519.016113	-276.795410	206.368927	389.515137	-249.641098	73.127937	230.258240	-341.766785	20.668413	253.031723	-410.236542	141.702042	95.557472	-347.493622	207.295410	668.862671	-675.023071	227.529953	504.480194	-607.091858	206.815063	343.518127	-666.711731	248.424713	71.104301	-596.049805	180.701309	56.116596	-548.149048	390.686554	39.098083	-568.360718
146	1.45000000	265.408417	1473.650269	-323.077057	237.770767	1442.262451	-698.220886	203.739471	1517.453491	-510.576080	359.648071	1414.389282	-506.674927	261.785706	1135.148926	-181.235245	249.401596	1112.199097	-806.586304	345.414444	872.374023	-205.790962	378.542130	870.451630	-785.421600	287.504242	1010.021423	-338.638153	280.215057	1017.193359	-623.562439	96.792458	1026.661377	-421.038940	95.925735	1027.796265	-522.805298	96.359097	1027.228821	-471.922119	121.407631	1256.477295	-483.492493	380.901062	1269.155762	-503.476135	310.577484	643.289612	-239.840195	387.167328	522.208252	-279.085052	227.762955	386.290527	-251.230499	98.458725	223.608978	-343.597046	44.195652	244.792053	-411.463043	173.149673	92.644066	-351.442322	212.402756	669.280151	-675.192688	231.346008	504.691528	-607.194458	209.483566	343.959839	-666.787292	248.553787	71.130043	-595.926025	180.678406	56.214638	-547.980042	390.713379	39.079735	-568.285767
147	1.46000000	273.506622	1473.838257	-323.416077	247.248123	1442.572266	-698.787964	212.555359	1517.658936	-511.322723	368.227112	1414.207642	-506.836609	263.490814	1134.709473	-182.943771	265.438782	1113.643799	-809.189392	341.898422	870.256104	-207.656052	400.399323	875.058014	-789.765747	295.284760	1010.443848	-339.258698	287.242584	1017.523560	-624.279663	104.408966	1027.208862	-421.009308	103.307068	1028.295288	-522.790955	103.858017	1027.752075	-471.900131	129.476746	1256.992676	-484.058716	389.046722	1268.905884	-503.757355	324.365814	645.197876	-241.340317	402.892517	525.194580	-281.499146	249.215378	382.491791	-252.840668	124.390572	216.122620	-345.411835	68.455505	235.437317	-412.709137	205.216339	89.346428	-355.245148	217.591782	669.641785	-675.326294	235.211548	504.870300	-607.262451	212.207108	344.382294	-666.849854	248.697571	71.152908	-595.788025	180.672943	56.319054	-547.816040	390.737183	39.046188	-568.193848
148	1.47000000	281.522583	1474.038940	-323.696960	256.700439	1442.846436	-699.267517	221.342911	1517.794800	-512.004761	376.794922	1413.994019	-506.903595	265.090057	1134.448730	-184.484192	281.163666	1115.184448	-811.646606	338.417099	868.506042	-209.563988	422.018692	880.027039	-793.833862	303.149017	1010.765198	-339.829468	294.373444	1017.796692	-624.912781	112.099747	1027.676514	-420.936279	110.767960	1028.722900	-522.735168	111.433853	1028.199707	-471.835724	137.590393	1257.416748	-484.552582	397.219971	1268.629883	-503.940582	337.634033	646.882385	-242.903641	418.037811	527.915588	-284.028931	270.680389	378.213837	-254.488098	150.926208	207.913513	-347.204468	93.473465	225.064255	-413.978271	237.850006	85.769783	-358.799194	222.863602	669.939575	-675.428101	239.100525	505.009827	-607.298218	214.957031	344.774963	-666.898804	248.856201	71.174492	-595.635620	180.689468	56.433868	-547.664368	390.754456	38.996685	-568.082947
